<svg xmlns="http://www.w3.org/2000/svg" version="1.1" xmlns:xlink="http://www.w3.org/1999/xlink" xmlns:svgjs="http://svgjs.dev/svgjs" width="1000" height="623" viewBox="0 0 1000 623"><g transform="matrix(1,0,0,1,-0.6060606060606233,0.2522267206477409)"><svg viewBox="0 0 396 247" data-background-color="#755bb4" preserveAspectRatio="xMidYMid meet" height="623" width="1000" xmlns="http://www.w3.org/2000/svg" xmlns:xlink="http://www.w3.org/1999/xlink"><g id="tight-bounds" transform="matrix(1,0,0,1,0.2400000000000091,-0.09999999999999432)"><svg viewBox="0 0 395.52 247.2" height="247.2" width="395.52"><g><svg></svg></g><g><svg viewBox="0 0 395.52 247.2" height="247.2" width="395.52"><g transform="matrix(1,0,0,1,75.54432,93.73427381672323)"><svg viewBox="0 0 244.43135999999998 59.731452366553526" height="59.731452366553526" width="244.43135999999998"><g><svg viewBox="0 0 244.43135999999998 59.731452366553526" height="59.731452366553526" width="244.43135999999998"><g><svg viewBox="0 0 244.43135999999998 59.731452366553526" height="59.731452366553526" width="244.43135999999998"><g><svg viewBox="0 0 244.43135999999998 59.731452366553526" height="59.731452366553526" width="244.43135999999998"><g id="textblocktransform"><svg viewBox="0 0 244.43135999999998 59.731452366553526" height="59.731452366553526" width="244.43135999999998" id="textblock"><g><svg viewBox="0 0 244.43135999999998 59.731452366553526" height="59.731452366553526" width="244.43135999999998"><g transform="matrix(1,0,0,1,0,0)"><svg width="244.43135999999998" viewBox="4.449999809265137 -37.95000076293945 162.04000854492188 39.60000228881836" height="59.731452366553526" data-palette-color="#ffffff"><path d="M9.9 0L4.45 0 4.45-36.25 9.9-36.25 9.9-20.85 28.05-20.85 28.05-36.25 33.55-36.25Q33.55-35.6 33.55-33.83 33.55-32.05 33.55-29.6 33.55-27.15 33.55-24.18 33.55-21.2 33.52-18.13 33.5-15.05 33.5-12.08 33.5-9.1 33.5-6.65 33.5-4.2 33.5-2.43 33.5-0.65 33.5 0L33.5 0 28.05 0 28.05-15.65 9.9-15.65 9.9 0ZM47.95 0L42.45 0 42.45-36.25 52.35-36.25Q55.2-36.25 57.57-35.5 59.95-34.75 61.67-33.27 63.4-31.8 64.35-29.68 65.3-27.55 65.3-24.8L65.3-24.8Q65.3-23.3 65-21.83 64.7-20.35 64.02-18.98 63.35-17.6 62.3-16.43 61.25-15.25 59.75-14.45L59.75-14.45Q61.75-11.3 64.1-7.48 66.45-3.65 68.85 0L68.85 0 62.3 0Q61.3-1.55 60.22-3.25 59.15-4.95 58.07-6.63 57-8.3 55.97-9.93 54.95-11.55 54.05-12.95L54.05-12.95 53.05-12.95 47.95-12.95 47.95 0ZM47.95-31.15L47.95-18.1 52.9-18.1Q54.9-18.1 56.25-18.78 57.6-19.45 58.37-20.45 59.15-21.45 59.47-22.6 59.8-23.75 59.8-24.7L59.8-24.7Q59.8-25.65 59.47-26.78 59.15-27.9 58.35-28.88 57.55-29.85 56.22-30.5 54.9-31.15 52.95-31.15L52.95-31.15 47.95-31.15ZM100.2-36.25L105.65-36.25 105.65 1.65Q104.95 0.75 102.95-1.25 100.95-3.25 98.35-5.85 95.75-8.45 92.82-11.3 89.9-14.15 87.3-16.73 84.7-19.3 82.75-21.33 80.8-23.35 80.15-24.2L80.15-24.2 79.2-25.5 79.35-23.9 79.35 0 73.85 0 73.85-37.95Q74.4-37.25 75.67-35.95 76.95-34.65 78.67-32.93 80.4-31.2 82.47-29.2 84.55-27.2 86.67-25.15 88.8-23.1 90.87-21.13 92.95-19.15 94.67-17.45 96.4-15.75 97.65-14.45 98.9-13.15 99.4-12.5L99.4-12.5 100.35-11.1 100.2-12.8 100.2-36.25ZM139.04 0L114.54 0 114.54-36.25 138.34-36.25 138.34-31.3 120.04-31.3 120.04-20.7 136.34-20.7 136.34-15.65 120.04-15.65 120.04-5.05 139.04-5.05 139.04 0ZM142.94-36.25L166.49-36.25 166.49-31.05 157.34-31.05 157.34 0 151.89 0 151.89-31.05 142.94-31.05 142.94-36.25Z" opacity="1" transform="matrix(1,0,0,1,0,0)" fill="#ffffff" class="wordmark-text-0" data-fill-palette-color="primary" id="text-0"></path></svg></g></svg></g></svg></g></svg></g></svg></g></svg></g></svg></g><path d="M198.374 87.734L198.374 28.963 9.1 28.963 9.1 218.237 198.374 218.237 198.374 159.466 192.987 159.466 192.987 212.85 14.487 212.85 14.487 34.35 192.987 34.35 192.987 87.734Z" fill="#ffffff" stroke="transparent" data-fill-palette-color="primary"></path></svg></g><defs></defs></svg><rect width="395.52" height="247.2" fill="none" stroke="none" visibility="hidden"></rect></g></svg></g></svg>